<?xml version="1.0" encoding="UTF-8" standalone="no"?>
<svg
   xmlns:dc="http://purl.org/dc/elements/1.1/"
   xmlns:cc="http://creativecommons.org/ns#"
   xmlns:rdf="http://www.w3.org/1999/02/22-rdf-syntax-ns#"
   xmlns:svg="http://www.w3.org/2000/svg"
   xmlns="http://www.w3.org/2000/svg"
   xmlns:sodipodi="http://sodipodi.sourceforge.net/DTD/sodipodi-0.dtd"
   xmlns:inkscape="http://www.inkscape.org/namespaces/inkscape"
   inkscape:version="1.0 (4035a4f, 2020-05-01)"
   sodipodi:docname="356.svg"
   id="svg8504"
   height="200.0pt"
   width="200.0pt"
   viewBox="0 0 200 200"
   version="1.1">
  <metadata
     id="metadata8510">
    <rdf:RDF>
      <cc:Work
         rdf:about="">
        <dc:format>image/svg+xml</dc:format>
        <dc:type
           rdf:resource="http://purl.org/dc/dcmitype/StillImage" />
      </cc:Work>
    </rdf:RDF>
  </metadata>
  <defs
     id="defs8508" />
  <sodipodi:namedview
     inkscape:current-layer="svg8504"
     inkscape:cy="133.33333"
     inkscape:cx="133.33333"
     inkscape:zoom="1.75125"
     showgrid="false"
     id="namedview8506"
     inkscape:window-height="480"
     inkscape:window-width="640"
     inkscape:pageshadow="2"
     inkscape:pageopacity="0"
     guidetolerance="10"
     gridtolerance="10"
     objecttolerance="10"
     borderopacity="1"
     bordercolor="#666666"
     pagecolor="#ffffff" />
  <path
     style="fill:#ffffff;fill-opacity:0.048583"
     id="path8380"
     fill="#ffffff"
     d="M 0.00 0.00 L 95.40 0.00 C 79.79 0.94 64.53 5.15 50.91 12.89 C 31.82 23.65 16.42 40.81 7.93 61.02 C 2.99 72.44 0.54 84.65 0.00 97.05 L 0.00 0.00 Z" />
  <path
     id="path8382"
     fill="#ee2227"
     d="M 95.40 0.00 L 105.64 0.00 L 106.64 0.09 C 123.04 1.44 138.97 6.32 152.94 15.09 C 170.55 25.98 184.49 42.42 192.45 61.53 C 196.69 71.49 198.93 82.03 200.00 92.77 L 200.00 108.43 C 198.26 124.99 193.07 140.95 183.86 154.88 C 173.34 170.96 158.19 183.86 140.60 191.62 C 130.34 196.28 119.41 198.75 108.24 200.00 L 92.33 200.00 C 76.76 198.53 61.65 193.91 48.28 185.73 C 29.68 174.52 14.99 157.15 7.02 136.95 C 2.91 126.80 0.88 116.10 0.00 105.22 L 0.00 97.05 C 0.54 84.65 2.99 72.44 7.93 61.02 C 16.42 40.81 31.82 23.65 50.91 12.89 C 64.53 5.15 79.79 0.94 95.40 0.00 Z" />
  <path
     style="fill:#ffffff;fill-opacity:0"
     id="path8384"
     fill="#ffffff"
     d="M 105.64 0.00 L 200.00 0.00 L 200.00 92.77 C 198.93 82.03 196.69 71.49 192.45 61.53 C 184.49 42.42 170.55 25.98 152.94 15.09 C 138.97 6.32 123.04 1.44 106.64 0.09 L 105.64 0.00 Z" />
  <path
     id="path8386"
     fill="#ffffff"
     d="M 104.06 4.80 C 105.27 4.91 106.48 5.02 107.68 5.13 C 107.28 9.41 106.29 13.78 106.48 18.08 C 106.73 20.63 111.83 21.14 112.40 18.52 C 113.51 14.50 113.62 10.15 114.19 6.02 C 115.41 6.16 116.63 6.30 117.86 6.44 C 117.28 10.66 117.11 15.05 116.04 19.18 C 114.70 25.90 101.79 24.02 102.72 17.03 C 102.84 12.95 103.59 8.86 104.06 4.80 Z" />
  <path
     id="path8388"
     fill="#ffffff"
     d="M 86.06 6.55 C 91.12 8.22 92.53 16.10 90.31 20.33 C 88.42 24.07 82.03 24.01 78.42 24.93 C 77.32 19.26 76.21 13.59 75.11 7.92 C 78.61 7.34 82.53 6.01 86.06 6.55 Z" />
  <path
     id="path8390"
     fill="#ffffff"
     d="M 124.55 8.18 C 125.75 8.29 126.95 8.53 128.13 8.73 C 128.96 13.34 129.81 17.94 130.74 22.53 C 132.10 18.80 133.38 15.05 134.67 11.29 C 135.73 11.63 136.80 11.97 137.86 12.32 C 136.01 17.78 134.12 23.24 132.24 28.70 C 131.11 28.35 129.98 28.00 128.86 27.65 C 127.92 23.03 127.06 18.41 126.12 13.79 C 124.73 17.60 123.43 21.43 122.11 25.27 C 121.05 24.88 119.99 24.50 118.93 24.12 C 120.89 18.84 122.39 13.37 124.55 8.18 Z" />
  <path
     id="path8392"
     fill="#ee2227"
     d="M 85.77 10.17 C 87.42 12.07 88.14 15.93 87.35 18.29 C 86.70 20.68 83.31 20.75 81.35 21.48 C 80.60 17.71 79.86 13.93 79.08 10.17 C 81.06 10.01 84.05 8.89 85.77 10.17 Z" />
  <path
     id="path8394"
     fill="#ffffff"
     d="M 61.80 12.92 C 63.58 17.30 65.35 21.68 67.11 26.07 C 69.77 25.00 72.42 23.92 75.08 22.85 C 75.46 23.81 75.84 24.78 76.22 25.74 C 72.46 27.27 68.70 28.80 64.93 30.31 C 62.76 24.95 60.59 19.59 58.45 14.22 C 59.56 13.79 60.68 13.36 61.80 12.92 Z" />
  <path
     id="path8396"
     fill="#ffffff"
     d="M 142.82 15.10 C 143.88 15.61 144.94 16.13 146.00 16.64 C 143.34 21.92 140.53 27.12 137.72 32.32 C 136.83 31.57 135.91 30.85 135.07 30.05 C 136.89 25.75 139.43 21.75 141.52 17.57 C 141.95 16.75 142.39 15.92 142.82 15.10 Z" />
  <path
     id="path8398"
     fill="#ffffff"
     d="M 52.86 17.31 C 53.40 18.17 53.95 19.03 54.50 19.89 C 51.94 21.54 49.38 23.20 46.83 24.85 C 47.49 25.88 48.15 26.91 48.82 27.94 C 51.18 26.42 53.54 24.89 55.90 23.37 C 56.43 24.21 56.96 25.05 57.50 25.89 C 55.14 27.43 52.79 28.97 50.45 30.53 C 51.27 31.75 52.09 32.96 52.91 34.18 C 55.57 32.46 58.22 30.74 60.88 29.02 C 61.50 29.82 62.12 30.63 62.74 31.43 C 59.08 33.93 55.36 36.34 51.64 38.74 C 48.48 33.92 45.35 29.07 42.22 24.23 C 45.75 21.90 49.29 19.59 52.86 17.31 Z" />
  <path
     id="path8400"
     fill="#ffffff"
     d="M 150.23 18.89 C 154.00 21.63 157.78 24.37 161.55 27.11 C 160.96 27.94 160.37 28.77 159.78 29.60 C 158.38 28.59 156.99 27.58 155.59 26.57 C 152.79 30.41 149.99 34.26 147.17 38.09 C 146.21 37.38 145.24 36.66 144.27 35.95 C 147.02 32.11 149.78 28.28 152.63 24.52 C 151.23 23.44 149.84 22.37 148.44 21.30 C 149.04 20.49 149.63 19.69 150.23 18.89 Z" />
  <path
     id="path8402"
     fill="#ffffff"
     d="M 89.50 26.74 C 107.56 24.14 126.31 28.35 141.42 38.59 C 155.60 48.12 166.31 62.57 171.16 78.96 C 175.51 93.39 175.14 109.22 170.40 123.51 C 165.67 137.76 156.49 150.45 144.46 159.43 C 133.07 167.97 119.22 173.11 105.01 174.01 C 89.89 175.05 74.53 171.33 61.60 163.41 C 49.52 156.08 39.65 145.23 33.46 132.54 C 26.57 118.52 24.41 102.37 27.15 87.00 C 29.55 73.36 35.92 60.49 45.26 50.26 C 56.71 37.59 72.58 29.12 89.50 26.74 Z" />
  <path
     id="path8404"
     fill="#ffffff"
     d="M 37.57 28.20 C 41.55 32.36 45.29 36.76 49.17 41.01 C 48.31 41.83 47.46 42.65 46.61 43.46 C 42.74 39.19 38.80 34.97 35.03 30.60 C 35.85 29.78 36.70 28.97 37.57 28.20 Z" />
  <path
     id="path8406"
     fill="#211e1f"
     d="M 90.50 30.67 C 99.57 29.67 109.12 29.91 117.96 32.34 C 135.19 36.83 150.36 48.18 159.69 63.32 C 167.24 75.42 170.84 89.76 169.96 104.00 C 169.35 118.15 163.99 132.11 155.23 143.22 C 144.64 156.80 129.03 166.24 112.02 169.12 C 101.07 170.88 89.60 170.29 79.01 166.89 C 63.48 162.04 49.92 151.57 41.13 137.90 C 33.93 126.73 29.88 113.32 30.14 100.00 C 29.86 83.36 36.25 66.68 47.21 54.20 C 58.21 41.44 73.80 32.94 90.50 30.67 Z" />
  <path
     id="path8408"
     fill="#ffffff"
     d="M 165.84 31.11 C 168.73 34.19 171.62 37.27 174.51 40.35 C 173.77 41.06 173.03 41.77 172.28 42.47 C 170.19 40.25 168.11 38.02 166.03 35.79 C 165.13 36.61 164.24 37.44 163.34 38.26 C 165.27 40.35 167.19 42.44 169.09 44.55 C 168.34 45.18 167.59 45.81 166.84 46.44 C 164.94 44.40 163.03 42.37 161.12 40.34 C 160.04 41.35 158.96 42.35 157.87 43.36 C 160.04 45.69 162.21 48.03 164.39 50.35 C 163.64 51.07 162.90 51.80 162.15 52.53 C 159.17 49.32 156.17 46.12 153.19 42.91 C 157.39 38.96 161.63 35.05 165.84 31.11 Z" />
  <path
     id="path8410"
     fill="#ffffff"
     d="M 31.64 33.50 C 32.42 34.15 33.19 34.80 33.97 35.45 C 32.11 37.67 30.26 39.88 28.40 42.10 C 29.40 42.96 30.40 43.82 31.41 44.69 C 33.04 42.75 34.68 40.82 36.30 38.88 C 37.08 39.50 37.85 40.13 38.62 40.75 C 37.00 42.71 35.38 44.67 33.76 46.62 C 35.60 48.17 37.44 49.72 39.29 51.26 C 38.53 52.19 37.76 53.11 37.00 54.03 C 32.58 50.33 28.17 46.62 23.76 42.92 C 26.37 39.77 29.01 36.63 31.64 33.50 Z" />
  <path
     id="path8412"
     fill="#ffffff"
     d="M 99.70 40.58 C 101.39 42.69 102.32 45.16 105.18 45.83 C 108.44 46.83 111.54 48.64 113.93 51.06 C 116.22 53.61 116.36 57.31 114.21 60.01 C 113.81 58.29 113.54 56.51 113.02 54.82 C 111.26 53.68 108.71 53.24 107.49 51.52 C 106.49 50.55 105.38 48.40 103.88 48.32 C 102.19 48.74 100.59 49.57 98.98 50.22 C 99.96 48.40 101.00 46.63 102.12 44.89 C 100.10 45.51 99.09 45.45 97.18 44.76 C 98.02 43.36 98.84 41.96 99.70 40.58 Z" />
  <path
     id="path8414"
     fill="#ffffff"
     d="M 90.43 45.47 C 93.88 43.62 96.93 45.11 99.64 47.45 C 97.68 47.54 95.59 47.25 93.65 47.60 C 92.12 48.97 91.16 50.90 89.22 51.52 C 87.91 52.19 85.67 52.60 84.97 54.00 C 85.04 55.78 85.16 57.56 85.32 59.33 C 83.78 57.61 82.01 56.59 82.18 53.99 C 83.16 50.21 87.21 47.33 90.43 45.47 Z" />
  <path
     id="path8416"
     fill="#ffffff"
     d="M 178.55 45.89 C 180.41 48.93 183.15 52.42 183.56 56.02 C 183.31 61.50 175.05 66.00 170.28 63.70 C 167.25 61.84 165.58 57.57 163.67 54.66 C 168.63 51.76 173.46 48.57 178.55 45.89 Z" />
  <path
     id="path8418"
     fill="#ffffff"
     d="M 20.44 47.25 C 21.28 47.81 22.10 48.38 22.92 48.96 C 21.66 51.52 20.22 54.00 18.86 56.51 C 20.02 57.12 21.18 57.72 22.33 58.33 C 23.56 56.15 24.79 53.96 26.02 51.77 C 26.90 52.22 27.78 52.67 28.66 53.13 C 27.44 55.37 26.21 57.60 24.99 59.84 C 27.07 61.00 29.16 62.15 31.26 63.31 C 30.76 64.36 30.26 65.42 29.77 66.48 C 24.59 63.83 19.57 60.91 14.47 58.11 C 16.46 54.49 18.45 50.87 20.44 47.25 Z" />
  <path
     id="path8420"
     fill="#ffffff"
     d="M 95.02 48.04 C 96.13 48.29 97.23 48.56 98.33 48.86 C 98.69 51.87 98.40 54.84 98.00 57.83 C 96.00 58.87 94.14 60.05 92.32 61.38 C 90.46 60.68 88.50 60.01 86.82 58.95 C 86.19 57.42 86.32 55.56 86.19 53.93 C 90.46 52.68 92.15 51.34 95.02 48.04 Z" />
  <path
     id="path8422"
     fill="#ffffff"
     d="M 104.05 49.57 C 106.78 52.42 108.80 54.67 112.70 55.94 C 112.72 57.11 112.74 58.28 112.75 59.45 C 109.49 60.79 106.22 61.83 102.64 61.45 C 104.24 65.25 102.36 69.08 98.07 68.99 C 93.59 68.84 91.73 63.02 95.34 60.29 C 98.18 57.94 100.95 60.30 103.88 61.09 C 102.37 59.88 100.80 58.76 99.21 57.66 C 99.25 55.77 99.23 53.78 99.59 51.93 C 100.59 50.31 102.33 50.00 104.05 49.57 Z" />
  <path
     id="path8424"
     fill="#ee2227"
     d="M 177.96 50.22 C 178.66 52.19 181.49 55.62 179.38 57.41 C 177.66 59.48 174.17 61.46 171.45 60.52 C 169.97 59.48 168.99 57.66 167.92 56.22 C 171.25 54.19 174.59 52.18 177.96 50.22 Z" />
  <path
     id="path8426"
     fill="#ffffff"
     d="M 76.95 54.78 C 78.24 54.39 79.54 53.99 80.83 53.58 C 81.15 55.85 80.96 57.88 82.49 59.71 C 81.98 60.81 81.45 61.89 81.05 63.04 C 81.73 64.73 82.94 66.23 83.44 67.98 C 83.66 69.65 83.62 71.41 84.00 73.05 C 85.13 74.46 88.02 74.40 89.57 74.98 C 87.70 75.99 85.80 76.94 83.89 77.88 L 86.79 78.33 C 86.77 79.32 86.75 80.32 86.74 81.32 C 85.56 81.47 84.39 81.64 83.22 81.81 C 83.38 80.03 83.50 78.24 83.63 76.46 C 80.28 73.56 78.59 69.31 78.13 65.00 C 77.91 62.82 79.12 61.49 80.15 59.71 C 79.07 58.08 78.00 56.43 76.95 54.78 Z" />
  <path
     id="path8428"
     fill="#ffffff"
     d="M 117.79 56.51 C 118.86 57.34 119.91 58.20 120.97 59.04 C 120.02 60.24 119.09 61.45 118.18 62.68 C 117.51 61.68 116.82 60.68 116.12 59.69 C 116.67 58.63 117.22 57.57 117.79 56.51 Z" />
  <path
     id="path8430"
     fill="#ffffff"
     d="M 83.99 59.65 C 86.92 59.91 89.58 61.32 92.22 62.52 C 92.62 64.74 93.18 66.87 93.88 69.01 C 92.71 70.49 91.50 72.18 90.01 73.34 C 88.50 74.06 86.38 72.79 84.82 72.44 C 84.72 70.70 84.75 68.90 84.43 67.19 C 83.77 65.43 82.71 63.84 82.07 62.07 C 82.59 61.20 83.23 60.39 83.99 59.65 Z" />
  <path
     id="path8432"
     fill="#211e1f"
     d="M 95.60 61.53 C 96.91 61.06 98.22 60.58 99.52 60.11 C 99.59 61.37 99.68 62.64 99.77 63.91 C 100.45 62.95 101.13 61.98 101.80 61.02 C 101.77 63.11 101.77 65.20 101.78 67.29 C 101.17 66.27 100.57 65.25 99.96 64.24 L 98.94 66.59 L 101.33 67.55 C 99.68 67.71 98.02 67.81 96.37 67.93 C 96.83 66.44 97.30 64.96 97.77 63.47 C 96.79 64.79 95.81 66.12 94.84 67.44 C 95.08 65.47 95.32 63.50 95.60 61.53 Z" />
  <path
     id="path8434"
     fill="#ffffff"
     d="M 111.63 60.54 C 113.13 60.52 114.51 60.75 115.77 61.24 C 118.03 62.41 117.98 64.80 117.91 67.03 C 117.57 69.92 116.73 72.91 115.27 75.44 C 113.42 78.04 110.33 78.94 107.26 78.18 C 108.75 77.09 110.49 76.21 111.81 74.92 C 112.41 72.58 111.94 70.46 113.45 68.48 C 114.64 66.30 116.19 65.37 114.22 63.06 C 113.36 62.22 112.50 61.38 111.63 60.54 Z" />
  <path
     id="path8436"
     fill="#ffffff"
     d="M 107.23 61.86 C 108.50 61.75 109.77 61.69 111.04 61.70 C 112.77 62.89 114.79 64.87 113.06 66.98 C 111.16 69.60 110.80 72.04 110.55 75.20 C 109.56 75.65 108.58 76.10 107.59 76.55 C 105.43 74.32 103.84 71.74 102.36 69.03 C 103.31 67.09 104.11 65.12 104.82 63.08 C 105.62 62.68 106.42 62.27 107.23 61.86 Z" />
  <path
     id="path8438"
     fill="#ffffff"
     d="M 11.66 64.33 C 12.65 64.31 13.65 64.33 14.64 64.39 C 13.74 67.46 12.77 70.52 11.83 73.58 C 12.98 73.93 14.13 74.29 15.28 74.65 C 16.15 71.98 17.01 69.32 17.87 66.66 C 18.82 66.98 19.77 67.30 20.72 67.62 C 19.86 70.27 19.00 72.93 18.15 75.60 C 19.55 76.05 20.96 76.50 22.36 76.96 C 23.36 73.94 24.34 70.91 25.33 67.88 C 26.32 68.19 27.31 68.51 28.29 68.82 C 26.94 72.98 25.59 77.13 24.23 81.28 C 18.74 79.51 13.26 77.73 7.78 75.93 C 9.09 72.08 10.09 68.08 11.66 64.33 Z" />
  <path
     id="path8440"
     fill="#ffffff"
     d="M 94.93 69.49 C 97.13 69.75 99.31 69.87 101.53 69.89 C 102.65 71.47 103.96 73.14 104.57 74.98 C 104.57 76.64 103.05 78.19 102.24 79.58 C 98.23 78.15 95.92 78.03 91.81 79.13 C 90.96 78.43 90.12 77.74 89.28 77.05 C 90.41 75.01 91.64 73.06 93.22 71.34 C 93.78 70.72 94.35 70.10 94.93 69.49 Z" />
  <path
     id="path8442"
     fill="#ffffff"
     d="M 191.09 71.66 C 192.09 75.65 193.09 79.63 194.04 83.63 C 193.06 83.85 192.08 84.07 191.10 84.30 C 190.41 81.50 189.71 78.70 189.01 75.91 C 187.73 76.22 186.44 76.54 185.15 76.86 C 185.76 79.32 186.37 81.77 186.98 84.23 C 186.01 84.47 185.04 84.71 184.06 84.94 C 183.45 82.49 182.83 80.04 182.22 77.59 C 179.87 78.17 177.52 78.74 175.17 79.32 C 174.89 78.16 174.60 77.01 174.32 75.85 C 179.91 74.46 185.50 73.06 191.09 71.66 Z" />
  <path
     id="path8444"
     fill="#ffffff"
     d="M 53.33 76.43 C 54.25 76.92 55.17 77.41 56.10 77.91 C 61.06 80.59 66.03 83.26 70.98 85.97 C 72.54 96.49 76.00 107.65 83.36 115.62 C 88.42 121.76 93.64 127.54 100.47 131.79 C 108.24 126.12 114.55 119.00 120.38 111.40 C 125.44 104.05 127.91 94.74 129.36 86.04 C 135.39 82.79 141.39 79.48 147.46 76.29 C 147.24 94.03 139.47 111.42 126.08 123.10 C 120.30 127.89 113.92 132.02 107.49 135.87 C 105.28 134.39 103.07 132.93 100.71 131.71 C 105.06 135.07 109.83 137.90 114.44 140.89 C 113.70 142.65 112.98 144.41 112.25 146.17 C 99.92 139.53 87.14 132.52 76.07 123.90 C 61.99 112.47 53.43 94.56 53.33 76.43 Z" />
  <path
     id="path8446"
     fill="#ffffff"
     d="M 106.13 75.65 C 106.38 77.13 106.48 78.59 106.45 80.06 C 106.12 82.09 103.64 83.19 101.85 83.61 C 98.80 84.10 95.41 84.36 92.41 83.54 C 89.12 82.31 88.42 79.62 87.26 76.53 C 88.93 77.66 90.50 79.47 92.36 80.28 C 95.10 79.87 97.13 78.93 99.91 80.08 C 102.42 80.70 102.88 80.92 104.40 78.58 C 104.98 77.61 105.56 76.63 106.13 75.65 Z" />
  <path
     id="path8448"
     fill="#ffffff"
     d="M 108.56 79.79 C 109.58 79.90 110.61 80.01 111.64 80.11 C 111.73 81.28 111.83 82.45 111.93 83.61 C 110.25 83.48 108.57 83.37 106.88 83.30 C 107.46 82.14 108.01 80.96 108.56 79.79 Z" />
  <path
     id="path8450"
     fill="#ffffff"
     d="M 6.40 82.47 C 12.11 83.19 17.83 83.88 23.54 84.58 C 23.40 85.77 23.26 86.96 23.12 88.15 C 20.56 87.84 18.00 87.53 15.43 87.22 C 15.16 89.45 14.89 91.69 14.62 93.93 C 17.17 94.24 19.72 94.56 22.27 94.89 C 22.14 96.07 22.01 97.25 21.88 98.43 C 16.13 97.74 10.39 97.03 4.65 96.30 C 4.80 95.12 4.95 93.94 5.10 92.76 C 7.27 93.03 9.44 93.31 11.60 93.58 C 11.90 91.34 12.19 89.09 12.48 86.85 C 10.28 86.59 8.08 86.32 5.88 86.05 C 6.05 84.86 6.23 83.66 6.40 82.47 Z" />
  <path
     id="path8452"
     fill="#ffffff"
     d="M 176.87 87.14 C 178.03 86.98 179.19 86.82 180.35 86.66 C 180.51 87.84 180.67 89.02 180.83 90.20 C 179.67 90.36 178.51 90.52 177.35 90.68 C 177.19 89.50 177.03 88.32 176.87 87.14 Z" />
  <path
     id="path8454"
     fill="#ffffff"
     d="M 192.72 95.24 C 196.05 97.70 196.24 102.80 194.09 106.08 C 192.97 107.50 190.99 108.29 189.44 109.19 C 189.40 108.05 189.35 106.91 189.31 105.78 C 190.71 104.27 192.76 103.35 192.41 100.98 C 192.10 97.82 188.65 96.94 185.98 97.02 C 183.36 97.04 180.84 98.07 180.49 100.98 C 180.33 103.36 182.25 104.16 183.70 105.65 C 183.63 106.76 183.56 107.88 183.49 109.00 C 181.85 108.01 179.70 107.07 178.56 105.49 C 176.27 101.91 177.36 96.25 181.39 94.37 C 184.76 92.77 189.68 92.94 192.72 95.24 Z" />
  <path
     id="path8456"
     fill="#ffffff"
     d="M 21.09 102.92 C 23.22 105.29 23.48 109.35 22.41 112.24 C 21.59 114.44 19.37 114.90 17.50 115.96 C 17.50 111.81 21.18 109.93 19.67 106.33 C 18.76 104.76 18.08 104.22 16.40 105.31 C 15.35 108.12 15.37 111.39 14.11 114.09 C 12.23 116.67 7.94 116.32 6.16 113.79 C 4.56 111.49 4.36 108.02 5.51 105.49 C 6.22 103.91 8.35 103.04 9.72 102.12 C 9.81 103.17 9.91 104.22 10.00 105.27 C 7.58 107.80 6.58 110.70 10.07 112.91 C 12.51 111.12 12.02 106.81 13.14 104.11 C 14.07 100.70 19.00 100.56 21.09 102.92 Z" />
  <path
     style="fill:#ffffff;fill-opacity:0"
     id="path8458"
     fill="#ffffff"
     d="M 0.00 105.22 C 0.88 116.10 2.91 126.80 7.02 136.95 C 14.99 157.15 29.68 174.52 48.28 185.73 C 61.65 193.91 76.76 198.53 92.33 200.00 L 0.00 200.00 L 0.00 105.22 Z" />
  <path
     style="fill:#ffffff;fill-opacity:0"
     id="path8460"
     fill="#ffffff"
     d="M 200.00 108.43 L 200.00 200.00 L 108.24 200.00 C 119.41 198.75 130.34 196.28 140.60 191.62 C 158.19 183.86 173.34 170.96 183.86 154.88 C 193.07 140.95 198.26 124.99 200.00 108.43 Z" />
  <path
     id="path8462"
     fill="#ffffff"
     d="M 177.24 110.78 C 178.39 110.97 179.53 111.16 180.68 111.35 C 180.49 112.52 180.31 113.68 180.12 114.85 C 178.97 114.67 177.82 114.48 176.67 114.29 C 176.86 113.12 177.05 111.95 177.24 110.78 Z" />
  <path
     id="path8464"
     fill="#ffffff"
     d="M 83.28 132.52 C 83.95 134.90 83.59 137.58 83.95 140.03 C 85.62 145.69 89.11 149.45 87.82 155.90 C 87.58 158.02 85.06 159.89 83.73 157.45 C 82.50 151.65 82.29 145.85 79.77 140.21 C 78.96 138.15 77.61 135.35 78.32 133.15 C 78.98 131.02 82.22 130.32 83.28 132.52 Z" />
  <path
     id="path8466"
     fill="#ffffff"
     d="M 122.17 132.97 C 122.76 135.44 121.37 138.19 120.47 140.46 C 118.16 145.70 117.85 152.20 116.61 157.60 C 114.32 159.36 112.80 157.30 112.54 155.05 C 111.60 148.93 114.87 145.20 116.52 139.83 C 116.90 137.36 116.45 134.61 117.20 132.23 C 118.20 130.02 121.66 130.77 122.17 132.97 Z" />
  <path
     id="path8468"
     fill="#ffffff"
     d="M 93.53 136.23 C 95.79 137.48 98.00 138.81 100.23 140.10 C 96.21 142.40 92.16 144.65 88.06 146.81 C 87.29 144.89 86.53 142.97 85.76 141.05 C 88.32 139.42 90.87 137.70 93.53 136.23 Z" />
  <path
     id="path8470"
     fill="#ee2227"
     d="M 63.03 143.23 C 63.94 144.54 61.42 146.85 60.15 145.95 C 59.28 144.56 61.69 142.45 63.03 143.23 Z" />
  <path
     id="path8472"
     fill="#ee2227"
     d="M 66.83 142.33 C 65.97 144.82 64.91 147.05 63.54 149.29 C 63.38 148.23 63.22 147.17 63.07 146.11 C 63.93 144.59 65.53 143.46 66.83 142.33 Z" />
  <path
     id="path8474"
     fill="#ee2227"
     d="M 72.82 142.55 C 71.86 145.57 71.06 148.08 68.27 149.91 C 68.78 148.04 69.31 146.18 70.04 144.38 C 70.95 143.75 71.88 143.14 72.82 142.55 Z" />
  <path
     id="path8476"
     fill="#ee2227"
     d="M 74.56 142.59 C 74.89 143.88 75.21 145.17 75.54 146.46 C 76.30 145.21 77.07 143.96 77.85 142.72 C 78.91 143.82 79.97 144.92 81.04 146.01 C 80.49 147.02 79.94 148.03 79.39 149.04 C 79.12 147.47 78.85 145.90 78.55 144.33 C 77.72 146.25 76.88 148.16 76.00 150.05 C 75.58 148.95 75.17 147.84 74.76 146.73 C 73.50 147.94 72.22 149.14 70.93 150.31 C 71.98 147.63 73.18 145.10 74.56 142.59 Z" />
  <path
     id="path8478"
     fill="#ee2227"
     d="M 122.48 142.37 C 123.18 143.38 123.87 144.39 124.56 145.40 C 125.02 144.42 125.49 143.44 125.96 142.46 C 127.32 144.88 128.59 147.34 129.59 149.93 C 127.67 148.65 126.62 147.52 125.41 145.53 C 125.22 146.86 125.02 148.19 124.81 149.52 C 123.95 148.43 123.11 147.32 122.25 146.22 L 120.97 148.02 C 120.47 146.77 119.96 145.51 119.45 144.26 C 120.21 144.42 120.96 144.58 121.72 144.74 L 122.48 142.37 Z" />
  <path
     id="path8480"
     fill="#ee2227"
     d="M 127.55 143.01 C 128.46 143.13 129.37 143.24 130.28 143.33 C 130.96 143.31 131.63 143.28 132.31 143.24 C 133.67 145.42 135.14 146.68 134.07 149.38 C 132.96 147.67 131.90 145.93 130.86 144.18 C 131.24 146.02 131.60 147.87 131.88 149.73 C 129.94 147.78 128.69 145.49 127.55 143.01 Z" />
  <path
     id="path8482"
     fill="#ee2227"
     d="M 133.58 142.33 C 134.43 142.75 135.28 143.17 136.14 143.59 C 137.07 143.48 138.01 143.41 138.94 143.37 C 139.84 144.11 140.59 145.10 141.33 145.98 C 139.89 145.36 138.43 144.78 136.96 144.23 C 137.06 145.78 137.15 147.32 137.24 148.87 C 136.38 147.67 135.52 146.47 134.74 145.21 C 134.34 144.26 133.95 143.30 133.58 142.33 Z" />
  <path
     id="path8484"
     fill="#ee2227"
     d="M 70.14 142.72 C 69.04 145.35 67.88 147.74 65.75 149.69 C 66.05 148.11 66.35 146.54 66.78 144.99 C 67.89 144.21 69.01 143.46 70.14 142.72 Z" />
  <path
     id="path8486"
     fill="#ffffff"
     d="M 121.67 178.34 C 123.79 181.19 124.79 186.51 123.82 189.88 C 122.97 192.99 119.38 194.51 116.45 193.50 C 115.22 192.78 114.14 191.75 113.04 190.84 C 114.00 190.56 114.96 190.28 115.92 190.01 C 116.95 190.37 117.99 190.68 119.05 190.95 C 121.14 190.76 120.79 187.83 121.41 186.30 C 119.49 186.98 117.28 188.48 115.23 187.72 C 111.79 186.75 110.77 182.10 112.21 179.20 C 113.91 175.81 119.44 175.16 121.67 178.34 Z" />
  <path
     id="path8488"
     fill="#ffffff"
     d="M 85.91 176.76 C 84.86 182.40 83.53 187.98 82.38 193.61 C 81.26 193.38 80.13 193.16 79.01 192.93 C 79.82 189.15 80.62 185.37 81.45 181.59 C 79.89 181.08 78.33 180.56 76.78 180.02 C 79.69 178.45 82.57 177.05 85.91 176.76 Z" />
  <path
     id="path8490"
     fill="#ffffff"
     d="M 97.81 182.01 C 97.58 183.35 96.91 184.67 96.38 185.92 C 97.00 187.69 98.25 189.73 97.58 191.61 C 96.11 196.78 86.84 196.37 86.06 190.96 C 85.61 188.58 87.02 187.26 88.21 185.45 C 87.78 183.90 86.71 181.99 87.45 180.44 C 89.28 176.09 97.56 177.02 97.81 182.01 Z" />
  <path
     id="path8492"
     fill="#ffffff"
     d="M 109.69 180.31 C 110.50 181.80 109.53 183.88 109.20 185.45 C 110.09 187.19 111.58 188.93 111.15 191.01 C 110.30 196.20 101.39 197.04 99.71 192.03 C 98.91 189.98 100.16 188.03 100.78 186.10 C 100.27 184.73 99.73 183.40 99.41 181.97 C 99.96 177.18 107.61 176.26 109.69 180.31 Z" />
  <path
     id="path8494"
     fill="#ee2227"
     d="M 116.30 179.23 C 118.81 178.48 120.03 180.72 119.92 182.91 C 120.13 184.81 116.54 185.97 115.72 184.25 C 114.78 182.77 114.28 180.05 116.30 179.23 Z" />
  <path
     id="path8496"
     fill="#ee2227"
     d="M 91.46 180.47 C 92.17 180.39 92.83 180.45 93.45 180.66 C 95.56 181.30 94.44 185.30 92.14 184.60 C 89.82 184.33 89.80 181.58 91.46 180.47 Z" />
  <path
     id="path8498"
     fill="#ee2227"
     d="M 104.45 180.53 C 106.06 180.46 107.09 181.16 106.88 182.92 C 107.02 185.03 103.29 185.41 102.83 183.43 C 102.37 182.03 102.90 180.79 104.45 180.53 Z" />
  <path
     id="path8500"
     fill="#ee2227"
     d="M 90.47 187.51 C 91.46 187.14 93.45 186.96 93.89 188.18 C 95.05 189.55 94.00 192.92 92.01 192.44 C 89.14 192.61 88.86 189.16 90.47 187.51 Z" />
  <path
     id="path8502"
     fill="#ee2227"
     d="M 104.49 187.48 C 107.92 186.22 109.17 191.93 105.84 192.51 C 102.68 193.40 101.74 188.15 104.49 187.48 Z" />
</svg>
