<?xml version="1.0" encoding="UTF-8" standalone="no"?>
<svg
   xmlns:dc="http://purl.org/dc/elements/1.1/"
   xmlns:cc="http://creativecommons.org/ns#"
   xmlns:rdf="http://www.w3.org/1999/02/22-rdf-syntax-ns#"
   xmlns:svg="http://www.w3.org/2000/svg"
   xmlns="http://www.w3.org/2000/svg"
   xmlns:sodipodi="http://sodipodi.sourceforge.net/DTD/sodipodi-0.dtd"
   xmlns:inkscape="http://www.inkscape.org/namespaces/inkscape"
   inkscape:version="1.0 (4035a4f, 2020-05-01)"
   sodipodi:docname="63.svg"
   id="svg2408"
   height="200.0pt"
   width="200.0pt"
   viewBox="0 0 200 200"
   version="1.1">
  <metadata
     id="metadata2414">
    <rdf:RDF>
      <cc:Work
         rdf:about="">
        <dc:format>image/svg+xml</dc:format>
        <dc:type
           rdf:resource="http://purl.org/dc/dcmitype/StillImage" />
      </cc:Work>
    </rdf:RDF>
  </metadata>
  <defs
     id="defs2412" />
  <sodipodi:namedview
     inkscape:current-layer="svg2408"
     inkscape:cy="133.33333"
     inkscape:cx="133.33333"
     inkscape:zoom="1.75125"
     showgrid="false"
     id="namedview2410"
     inkscape:window-height="480"
     inkscape:window-width="640"
     inkscape:pageshadow="2"
     inkscape:pageopacity="0"
     guidetolerance="10"
     gridtolerance="10"
     objecttolerance="10"
     borderopacity="1"
     bordercolor="#666666"
     pagecolor="#ffffff" />
  <path
     style="fill:#ffffff;fill-opacity:0.04048583"
     id="path2398"
     fill="#ffffff"
     d="M 0.00 0.00 L 200.00 0.00 L 200.00 200.00 L 0.00 200.00 L 0.00 0.00 Z" />
  <path
     id="path2400"
     fill="#000000"
     d="M 169.19 11.50 C 170.47 11.86 172.63 12.14 172.38 13.95 C 172.47 47.22 172.38 80.70 172.43 114.00 C 172.42 116.42 172.59 118.66 171.96 121.03 C 169.49 130.12 165.51 138.60 160.64 146.63 C 146.47 169.82 124.78 186.85 99.99 197.52 C 86.27 191.68 73.34 183.70 62.16 173.82 C 47.96 161.24 36.31 145.06 29.88 127.15 C 28.93 124.21 27.70 121.13 27.48 118.03 C 27.44 83.78 27.50 49.21 27.45 14.98 C 27.46 13.58 27.43 12.38 29.06 11.97 C 43.46 8.18 58.36 5.72 73.15 4.12 C 105.43 0.65 137.73 3.85 169.19 11.50 Z" />
  <path
     id="path2402"
     fill="#ffffff"
     d="M 91.00 6.72 C 108.26 5.99 125.20 7.44 142.26 9.95 C 142.34 61.32 142.24 112.71 142.31 164.08 C 130.34 176.74 115.78 186.21 99.98 193.41 C 84.16 186.27 69.67 176.77 57.65 164.18 C 57.74 112.76 57.63 61.34 57.71 9.93 C 68.77 8.36 79.82 7.08 91.00 6.72 Z" />
  <path
     id="path2404"
     fill="#000000"
     d="M 110.07 24.88 C 118.27 33.02 126.43 41.25 134.63 49.39 C 135.55 50.33 136.38 51.27 135.72 52.65 C 133.77 54.94 131.48 56.95 129.35 59.08 C 122.28 51.89 115.10 44.81 108.02 37.64 C 104.72 40.84 101.54 44.15 98.25 47.35 C 109.64 58.76 121.02 70.17 132.45 81.54 C 133.37 82.61 134.82 83.55 134.82 85.05 C 133.13 87.76 130.34 89.84 128.16 92.19 C 121.05 85.02 113.90 77.90 106.77 70.76 C 103.48 73.93 100.37 77.30 96.99 80.37 C 102.15 85.75 107.54 90.91 112.75 96.25 C 115.09 98.87 118.34 99.65 121.03 101.95 C 127.92 107.43 133.20 115.93 132.57 125.00 C 132.29 130.03 130.08 134.40 126.94 138.22 C 124.14 135.44 121.38 132.64 118.57 129.87 C 120.63 126.15 122.10 122.45 120.92 118.13 C 118.77 111.29 111.28 105.79 103.98 106.95 C 98.02 107.83 92.77 111.39 88.72 115.71 C 85.09 119.56 82.07 124.63 81.60 129.99 C 80.89 137.07 86.15 144.24 92.98 146.00 C 98.32 147.19 103.30 144.68 107.31 141.37 C 110.09 144.10 112.83 146.87 115.58 149.64 C 109.87 154.75 102.75 157.95 94.96 157.14 C 80.42 155.44 68.79 140.52 70.94 125.98 C 73.02 111.77 84.95 99.60 98.86 96.46 C 95.83 93.55 92.90 90.54 89.91 87.59 C 84.53 92.99 79.10 98.34 73.75 103.76 C 72.78 104.73 71.71 105.64 70.33 104.77 C 67.91 102.69 65.73 100.30 63.63 97.91 C 64.61 95.54 66.56 94.15 68.32 92.32 C 78.46 82.21 88.55 72.06 98.71 61.98 C 96.20 59.47 93.69 56.95 91.17 54.45 C 85.91 59.76 80.56 64.98 75.33 70.33 C 74.28 71.31 73.66 72.27 72.05 72.01 C 70.16 70.60 68.58 68.74 66.89 67.09 C 66.14 66.21 64.99 65.37 65.09 64.09 C 66.03 62.49 67.59 61.20 68.87 59.88 C 80.55 48.25 92.24 36.48 103.93 24.88 C 105.56 23.11 108.45 23.07 110.07 24.88 Z" />
  <path
     id="path2406"
     fill="#d81c2d"
     d="M 107.00 25.02 C 108.19 25.17 109.13 26.24 109.99 27.01 C 116.30 33.37 122.64 39.69 128.98 46.02 C 130.85 47.92 132.83 49.64 134.41 51.81 C 132.74 53.49 131.12 55.20 129.27 56.68 C 122.26 49.49 115.09 42.46 108.02 35.33 C 103.98 39.29 100.03 43.34 95.99 47.29 C 108.22 59.98 121.05 72.15 133.24 84.87 C 131.55 86.54 129.89 88.23 128.19 89.88 C 121.04 82.75 113.90 75.62 106.79 68.47 C 102.87 72.38 98.88 76.23 95.05 80.23 L 95.06 80.76 C 100.63 86.56 106.47 92.16 112.10 97.91 C 114.16 100.12 116.85 100.79 119.32 102.69 C 125.41 107.18 130.26 114.32 130.95 121.97 C 131.38 126.99 129.70 131.70 126.85 135.77 C 124.77 133.80 122.75 131.77 120.72 129.76 C 122.03 126.11 123.63 123.06 122.84 119.04 C 121.13 111.12 113.18 104.70 105.00 105.18 C 98.07 105.80 92.26 109.62 87.57 114.56 C 83.66 118.72 80.39 124.18 79.97 129.99 C 79.17 138.59 86.34 147.27 94.98 147.98 C 99.57 148.10 103.53 146.16 107.22 143.62 C 109.27 145.58 111.36 147.45 113.11 149.71 C 108.37 153.31 103.07 155.68 97.00 155.55 C 82.44 155.27 70.33 140.29 72.65 125.99 C 74.72 111.64 87.79 99.20 102.19 97.66 C 98.24 93.41 94.00 89.42 89.94 85.27 C 83.67 91.30 77.78 97.90 71.23 103.60 C 69.37 101.61 67.45 99.69 65.52 97.77 C 67.11 95.60 69.09 93.87 70.97 91.97 C 80.96 81.97 90.97 71.99 100.97 61.99 C 97.73 58.68 94.42 55.44 91.16 52.16 C 85.03 58.29 78.90 64.40 72.78 70.53 C 71.10 68.73 67.69 66.41 66.99 64.16 C 79.01 51.90 91.43 39.74 103.52 27.52 C 104.51 26.62 105.64 25.23 107.00 25.02 Z" />
</svg>
