<?xml version="1.0" encoding="UTF-8" standalone="no"?>
<svg
   xmlns:dc="http://purl.org/dc/elements/1.1/"
   xmlns:cc="http://creativecommons.org/ns#"
   xmlns:rdf="http://www.w3.org/1999/02/22-rdf-syntax-ns#"
   xmlns:svg="http://www.w3.org/2000/svg"
   xmlns="http://www.w3.org/2000/svg"
   xmlns:sodipodi="http://sodipodi.sourceforge.net/DTD/sodipodi-0.dtd"
   xmlns:inkscape="http://www.inkscape.org/namespaces/inkscape"
   inkscape:version="1.0 (4035a4f, 2020-05-01)"
   sodipodi:docname="74.svg"
   id="svg5329"
   height="200.0pt"
   width="200.0pt"
   viewBox="0 0 200 200"
   version="1.1">
  <metadata
     id="metadata5335">
    <rdf:RDF>
      <cc:Work
         rdf:about="">
        <dc:format>image/svg+xml</dc:format>
        <dc:type
           rdf:resource="http://purl.org/dc/dcmitype/StillImage" />
      </cc:Work>
    </rdf:RDF>
  </metadata>
  <defs
     id="defs5333" />
  <sodipodi:namedview
     inkscape:current-layer="svg5329"
     inkscape:cy="133.33333"
     inkscape:cx="133.33333"
     inkscape:zoom="1.75125"
     showgrid="false"
     id="namedview5331"
     inkscape:window-height="480"
     inkscape:window-width="640"
     inkscape:pageshadow="2"
     inkscape:pageopacity="0"
     guidetolerance="10"
     gridtolerance="10"
     objecttolerance="10"
     borderopacity="1"
     bordercolor="#666666"
     pagecolor="#ffffff" />
  <path
     style="fill:#ffffff;fill-opacity:0.08097166"
     id="path5203"
     fill="#ffffff"
     d="M 0.00 0.00 L 200.00 0.00 L 200.00 200.00 L 0.00 200.00 L 0.00 0.00 Z" />
  <path
     id="path5205"
     fill="#091453"
     d="M 181.50 9.65 C 181.40 42.08 181.55 74.57 181.42 107.00 C 179.85 131.56 168.77 155.88 150.51 172.52 C 136.21 185.72 118.76 193.59 100.02 198.23 C 85.05 194.47 70.90 188.80 58.35 179.68 C 32.57 161.40 17.37 129.48 18.62 98.00 C 18.61 68.56 18.65 39.11 18.60 9.66 C 24.24 8.30 30.11 7.82 35.84 6.87 C 84.04 0.40 133.61 1.07 181.50 9.65 Z" />
  <path
     id="path5207"
     fill="#ffffff"
     d="M 177.29 12.71 L 177.67 13.14 C 177.60 31.45 177.57 49.78 177.69 68.09 C 172.73 68.58 166.15 68.14 160.96 68.30 C 160.69 95.59 160.90 127.12 160.87 154.85 C 156.16 161.52 150.59 167.82 144.16 172.87 C 144.40 162.39 144.34 151.60 144.20 141.11 C 138.56 138.32 132.68 136.20 126.73 134.17 L 125.66 134.25 C 125.74 137.03 125.70 139.81 125.69 142.59 C 128.26 142.40 130.81 142.59 133.39 142.59 C 132.91 144.64 132.20 146.38 131.10 148.19 C 135.17 148.88 138.94 149.89 141.54 153.34 C 139.20 156.93 135.53 158.07 131.53 158.82 C 132.48 160.59 133.74 162.00 133.71 164.11 C 131.01 164.28 128.43 164.73 125.71 164.49 C 125.70 171.24 125.72 178.03 125.71 184.78 C 120.61 187.55 115.05 189.57 109.60 191.53 C 109.52 188.53 109.66 185.51 109.61 182.51 C 106.24 181.48 103.86 179.62 101.52 177.04 C 100.31 178.69 99.16 180.30 97.60 181.64 C 95.94 178.75 93.87 176.38 93.12 173.01 C 92.05 174.04 90.88 174.94 89.75 175.90 C 89.76 181.04 89.71 186.20 89.80 191.34 C 84.69 189.27 77.54 187.01 73.14 183.95 C 73.30 176.80 73.16 169.64 73.22 162.49 C 70.04 162.75 67.41 162.46 64.38 161.52 C 64.94 159.70 65.83 158.23 66.96 156.70 C 63.41 155.55 60.12 154.48 58.21 150.99 C 59.15 147.80 64.88 146.19 67.93 146.14 C 67.12 144.17 66.40 142.39 66.24 140.23 C 68.56 140.58 70.88 140.48 73.21 140.76 C 73.23 136.79 73.17 132.82 73.24 128.84 C 71.32 126.39 69.01 124.30 67.43 121.55 C 62.33 113.30 60.46 102.67 57.67 93.46 C 56.96 91.80 56.28 89.22 54.53 88.45 C 54.89 116.25 54.47 144.14 54.74 171.95 C 48.55 166.69 42.89 160.46 38.48 153.64 C 38.59 126.77 38.50 99.88 38.53 73.00 C 38.33 71.57 38.97 69.41 38.23 68.21 C 33.05 68.40 27.87 68.23 22.69 68.32 L 22.43 67.82 C 22.49 49.63 22.50 31.44 22.43 13.25 L 22.69 12.74 C 73.82 4.28 126.16 4.31 177.29 12.71 Z" />
  <path
     id="path5209"
     fill="#091453"
     d="M 44.24 16.55 C 46.72 16.57 49.21 16.51 51.69 16.59 C 51.82 17.16 51.83 17.75 51.72 18.38 C 49.92 18.47 48.10 18.34 46.29 18.37 C 45.13 23.20 49.01 20.27 51.52 21.38 C 52.24 24.28 47.77 22.59 46.21 23.09 C 46.17 24.03 46.17 24.96 46.21 25.88 C 48.10 25.97 50.00 25.83 51.89 25.90 L 51.90 27.89 C 49.33 27.89 46.75 27.94 44.19 27.80 C 44.15 24.08 44.03 20.25 44.24 16.55 Z" />
  <path
     id="path5211"
     fill="#091453"
     d="M 58.97 16.33 C 60.73 16.41 62.61 17.60 60.09 18.83 C 58.41 17.94 56.25 17.48 55.97 19.96 C 57.82 21.48 60.91 21.23 61.60 23.95 C 62.00 27.07 58.73 28.83 56.01 28.09 C 54.31 27.35 52.34 26.89 55.02 25.23 C 57.17 26.44 57.72 26.96 59.64 25.03 C 58.46 22.11 54.66 23.57 53.70 19.92 C 54.37 17.07 56.12 16.03 58.97 16.33 Z" />
  <path
     id="path5213"
     fill="#091453"
     d="M 102.51 16.71 C 106.27 15.45 110.36 16.78 111.23 20.96 C 112.23 25.98 106.86 29.85 102.38 27.58 C 97.91 25.66 98.12 18.67 102.51 16.71 Z" />
  <path
     id="path5215"
     fill="#091453"
     d="M 122.48 16.57 C 123.45 16.48 124.44 16.49 125.44 16.59 C 125.53 20.30 125.46 24.03 125.47 27.75 C 124.86 27.98 124.21 27.99 123.52 27.77 C 123.42 24.80 123.67 21.84 123.64 18.87 C 121.89 21.55 121.27 24.96 120.02 27.93 L 118.48 27.68 C 117.31 24.79 116.52 21.76 115.31 18.89 C 114.80 21.88 115.33 24.80 115.17 27.81 L 113.32 27.98 C 113.02 24.26 113.12 20.28 113.25 16.54 L 116.19 16.55 C 117.27 18.91 118.11 21.38 119.00 23.81 L 119.62 23.82 C 120.55 21.41 121.28 18.85 122.48 16.57 Z" />
  <path
     id="path5217"
     fill="#091453"
     d="M 127.33 16.48 C 128.00 16.46 128.66 16.48 129.32 16.54 C 130.14 18.94 130.67 21.44 131.33 23.88 L 131.97 23.86 C 132.49 21.72 133.20 19.64 133.79 17.52 C 133.84 16.62 134.63 16.31 136.17 16.57 C 137.03 18.95 137.65 21.40 138.38 23.82 L 139.01 23.92 C 139.57 21.54 140.22 19.19 140.92 16.85 L 142.03 16.29 L 143.01 16.86 C 141.80 20.45 140.95 24.14 139.73 27.73 L 137.88 27.98 C 137.01 25.48 136.08 22.90 135.71 20.28 L 134.62 20.13 C 134.10 22.69 133.35 25.20 132.48 27.66 C 131.93 28.06 131.27 28.06 130.50 27.66 C 129.46 24.06 128.04 20.08 127.33 16.48 Z" />
  <path
     id="path5219"
     fill="#091453"
     d="M 146.52 16.49 C 146.74 20.21 146.57 24.05 146.59 27.79 C 145.87 27.99 145.19 27.98 144.57 27.76 C 144.60 24.03 144.50 20.29 144.63 16.57 C 145.24 16.48 145.87 16.45 146.52 16.49 Z" />
  <path
     id="path5221"
     fill="#091453"
     d="M 158.45 17.62 C 158.54 18.91 157.03 19.59 156.08 18.62 C 154.55 17.39 151.88 18.47 151.13 20.16 C 149.14 23.04 152.62 27.73 155.83 25.86 C 157.06 25.03 158.68 24.63 158.63 26.66 C 156.12 28.47 153.58 28.88 150.92 27.07 C 147.75 24.91 147.71 19.95 150.58 17.57 C 152.85 15.72 156.12 15.91 158.45 17.62 Z" />
  <path
     id="path5223"
     fill="#091453"
     d="M 162.51 16.50 C 162.70 17.89 162.71 19.33 162.55 20.81 C 164.34 20.93 166.14 20.95 167.95 20.87 C 168.16 19.13 166.72 15.20 170.14 16.80 C 170.16 20.34 170.10 23.88 170.17 27.42 C 166.73 29.80 168.17 24.62 167.86 22.90 C 166.12 22.86 164.38 22.87 162.64 22.90 C 162.57 24.53 162.71 26.15 162.62 27.78 C 161.89 27.98 161.20 27.97 160.57 27.77 C 160.60 24.03 160.51 20.28 160.60 16.55 C 161.24 16.48 161.88 16.47 162.51 16.50 Z" />
  <path
     id="path5225"
     fill="#091453"
     d="M 26.52 16.59 C 28.22 16.25 29.10 16.55 29.17 17.51 C 29.57 19.62 30.20 21.67 30.50 23.80 L 31.54 23.74 C 32.07 21.31 32.65 18.74 33.76 16.50 L 35.19 16.42 C 36.55 18.36 37.06 21.41 37.62 23.73 L 38.50 23.94 C 39.16 21.58 39.37 18.22 40.90 16.31 L 42.48 16.72 C 41.25 20.44 40.31 24.26 39.03 27.98 L 37.21 27.72 C 36.28 25.27 35.65 22.68 34.78 20.19 L 34.15 20.09 C 33.49 22.67 32.71 25.28 31.87 27.80 L 29.98 27.85 C 28.80 24.11 27.81 20.31 26.52 16.59 Z" />
  <path
     id="path5227"
     fill="#091453"
     d="M 62.77 16.63 C 65.85 16.57 69.08 16.40 72.13 16.71 L 72.12 18.32 C 70.89 18.38 69.65 18.42 68.42 18.45 C 68.34 21.63 68.69 24.92 68.28 28.07 L 66.38 27.71 C 66.42 24.67 66.37 21.63 66.49 18.59 C 65.30 18.38 64.07 18.30 62.79 18.35 L 62.77 16.63 Z" />
  <path
     id="path5229"
     fill="#091453"
     d="M 78.82 16.62 C 81.13 16.72 84.68 15.84 86.38 17.69 C 87.47 19.45 86.94 20.62 85.37 21.77 C 87.23 23.13 87.80 23.60 87.25 26.01 C 85.07 28.63 81.81 27.93 78.79 27.69 C 78.85 24.00 78.79 20.31 78.82 16.62 Z" />
  <path
     id="path5231"
     fill="#091453"
     d="M 89.53 16.57 C 91.97 16.75 95.46 15.80 97.20 17.87 C 98.69 20.02 97.48 22.19 95.22 23.03 C 96.15 24.68 97.45 26.14 98.02 27.92 C 93.84 29.01 95.08 22.82 91.67 22.97 C 90.93 25.13 93.17 28.28 89.72 28.08 C 89.30 24.31 89.64 20.38 89.53 16.57 Z" />
  <path
     id="path5233"
     fill="#ffffff"
     d="M 81.20 18.25 C 82.59 18.31 83.78 18.10 84.90 19.11 C 85.18 21.16 82.66 21.46 81.20 21.04 C 80.83 20.20 80.83 19.27 81.20 18.25 Z" />
  <path
     id="path5235"
     fill="#ffffff"
     d="M 91.57 18.39 C 93.15 18.14 96.59 18.08 95.54 20.61 C 94.38 21.71 93.11 21.30 91.67 21.33 C 91.51 20.37 91.48 19.39 91.57 18.39 Z" />
  <path
     id="path5237"
     fill="#ffffff"
     d="M 106.05 18.18 C 108.08 18.69 108.77 20.14 109.26 21.99 C 108.82 23.63 108.65 25.14 106.89 25.85 C 104.29 27.36 100.92 24.89 101.23 21.98 C 101.20 19.66 103.74 17.59 106.05 18.18 Z" />
  <path
     id="path5239"
     fill="#ffffff"
     d="M 81.13 22.90 C 83.11 22.94 84.75 22.36 85.51 24.68 C 84.68 26.31 82.70 26.14 81.13 26.08 C 80.87 25.08 80.87 24.02 81.13 22.90 Z" />
  <path
     id="path5241"
     fill="#091453"
     d="M 88.01 31.87 C 91.95 31.76 96.66 32.73 97.88 37.08 C 99.08 40.86 96.90 44.20 93.26 45.33 C 96.63 46.16 99.20 48.38 99.42 51.98 C 99.71 55.07 97.95 57.89 95.24 59.27 C 90.19 61.55 83.60 60.28 78.11 60.62 L 77.81 60.08 C 77.90 50.75 77.85 41.42 77.86 32.08 C 80.98 31.54 84.77 32.05 88.01 31.87 Z" />
  <path
     id="path5243"
     fill="#091453"
     d="M 121.46 31.54 C 126.28 30.72 131.66 31.21 135.53 34.45 C 142.08 39.71 142.49 50.76 136.74 56.74 C 130.69 62.90 119.34 63.03 113.50 56.51 C 109.42 51.92 108.75 44.95 111.30 39.44 C 113.17 35.28 117.02 32.45 121.46 31.54 Z" />
  <path
     id="path5245"
     fill="#091453"
     d="M 38.94 31.87 C 40.31 31.84 41.68 31.85 43.04 31.89 C 47.51 41.10 51.53 51.19 55.79 60.59 C 53.96 60.50 51.38 60.98 49.75 60.35 C 48.86 58.34 48.10 56.27 47.19 54.26 C 43.03 54.02 38.78 54.28 34.60 54.13 C 33.40 56.13 33.01 58.64 31.75 60.60 C 29.85 60.64 27.94 60.66 26.04 60.59 C 30.29 51.39 34.56 40.77 38.94 31.87 Z" />
  <path
     id="path5247"
     fill="#091453"
     d="M 57.79 31.90 C 59.28 32.16 62.61 31.04 63.22 32.87 C 62.55 40.41 62.93 48.20 62.97 55.77 C 66.93 56.08 70.95 55.80 74.92 55.90 C 75.81 56.74 75.16 59.35 75.33 60.61 C 69.60 60.63 63.85 60.58 58.11 60.63 L 57.70 60.21 C 57.86 50.78 57.68 41.33 57.79 31.90 Z" />
  <path
     id="path5249"
     fill="#091453"
     d="M 101.89 31.90 C 103.65 31.84 105.41 31.84 107.16 31.90 C 107.27 41.32 107.11 50.75 107.24 60.17 L 106.85 60.61 C 105.27 60.64 103.68 60.64 102.10 60.61 L 101.85 60.03 C 101.90 50.66 101.81 41.27 101.89 31.90 Z" />
  <path
     id="path5251"
     fill="#091453"
     d="M 143.60 31.88 C 145.76 31.86 147.92 31.87 150.08 31.86 C 154.08 36.62 157.43 42.79 161.10 47.95 C 162.40 49.51 163.05 51.93 164.81 52.98 C 164.46 45.97 164.67 38.91 164.66 31.88 C 166.36 31.86 168.07 31.84 169.78 31.89 C 169.83 41.37 169.80 51.11 169.79 60.60 C 167.65 60.64 165.49 60.66 163.35 60.60 C 158.30 53.47 153.75 45.67 148.70 38.58 C 148.84 45.87 148.73 53.23 148.78 60.59 C 147.09 60.55 145.12 60.87 143.50 60.42 C 143.69 50.91 143.49 41.39 143.60 31.88 Z" />
  <path
     id="path5253"
     fill="#ffffff"
     d="M 121.45 36.54 C 125.33 34.92 130.07 36.02 132.85 39.15 C 136.26 43.23 136.11 49.63 132.58 53.57 C 129.31 57.27 123.17 57.76 119.30 54.74 C 113.28 50.27 114.08 39.23 121.45 36.54 Z" />
  <path
     id="path5255"
     fill="#ffffff"
     d="M 83.13 36.35 C 85.61 36.48 88.60 35.97 90.93 36.89 C 92.89 37.81 93.36 39.66 92.55 41.58 C 90.45 44.51 86.24 43.32 83.14 43.55 C 83.17 41.15 83.18 38.75 83.13 36.35 Z" />
  <path
     id="path5257"
     fill="#ffffff"
     d="M 41.13 38.31 C 42.14 42.17 44.11 45.97 45.28 49.65 C 42.27 49.64 39.25 49.74 36.24 49.60 C 37.38 46.92 38.40 44.20 39.48 41.50 L 39.73 40.81 C 39.93 39.46 40.40 38.63 41.13 38.31 Z" />
  <path
     id="path5259"
     fill="#ffffff"
     d="M 83.38 47.87 C 86.18 47.95 89.81 47.64 92.44 48.73 C 94.71 50.02 94.87 53.37 92.85 54.97 C 90.17 56.85 86.37 56.08 83.24 56.27 C 83.22 53.56 82.92 50.51 83.38 47.87 Z" />
  <path
     id="path5261"
     fill="#091453"
     d="M 89.85 68.26 C 96.41 68.35 103.03 68.26 109.58 68.30 C 109.62 78.16 109.58 88.19 109.60 98.07 C 103.14 94.86 96.57 92.40 89.76 90.12 C 89.81 82.95 89.61 75.37 89.85 68.26 Z" />
  <path
     id="path5263"
     fill="#091453"
     d="M 125.97 68.29 C 132.01 68.28 138.06 68.33 144.10 68.27 L 144.33 68.81 C 144.26 84.86 144.30 100.92 144.31 116.97 C 140.73 114.99 136.89 113.43 132.96 112.28 C 130.21 111.81 128.12 109.33 125.79 107.84 C 125.61 96.53 125.76 84.41 125.71 73.00 C 125.92 71.62 125.27 69.43 125.97 68.29 Z" />
  <path
     id="path5265"
     fill="#091453"
     d="M 54.64 68.33 C 60.82 68.28 67.04 68.25 73.22 68.35 C 73.22 71.29 73.19 74.22 73.24 77.16 C 69.11 75.20 64.98 74.95 60.73 76.71 C 58.95 77.76 56.61 75.46 54.91 74.84 C 54.26 72.98 54.86 70.36 54.64 68.33 Z" />
  <path
     id="path5267"
     fill="#5a2d09"
     d="M 50.24 74.22 C 53.59 75.18 56.50 77.97 59.91 78.72 C 63.93 76.84 68.42 76.40 72.41 78.59 C 77.48 81.02 80.12 86.62 83.47 90.34 C 100.35 93.94 116.46 102.34 130.04 112.88 C 137.19 115.17 145.00 117.90 150.58 123.18 L 150.61 124.36 C 147.75 123.73 144.92 122.66 141.98 122.47 C 146.99 124.79 152.32 125.90 156.80 129.19 C 157.85 130.02 159.32 130.88 159.63 132.25 C 157.70 132.38 155.92 131.86 154.03 131.61 C 155.89 133.09 159.50 134.71 159.59 137.38 C 156.07 137.55 152.44 136.77 149.16 135.53 C 151.84 137.65 154.92 138.69 157.89 140.28 L 157.60 141.26 C 153.59 142.12 149.58 141.86 145.84 140.15 C 139.73 137.29 133.50 134.70 127.05 132.72 C 124.10 132.20 120.87 131.92 117.92 132.55 C 115.33 133.70 113.33 135.38 111.71 137.69 C 108.78 141.87 106.33 146.41 104.03 150.95 C 103.53 151.52 102.77 151.87 101.73 151.98 C 102.41 148.50 104.23 144.33 105.46 140.85 C 102.09 142.99 99.32 146.13 96.19 148.61 L 94.73 147.91 C 96.90 144.18 100.26 140.88 103.45 137.97 C 100.96 136.57 96.86 137.35 94.71 135.54 C 99.46 135.53 104.60 134.94 108.91 132.92 C 110.33 131.91 113.45 130.78 112.83 128.58 C 108.86 127.41 104.02 126.09 100.00 125.19 C 98.93 124.79 96.83 123.20 96.04 124.66 C 97.81 125.57 100.53 125.95 99.72 128.61 C 96.79 128.78 94.73 127.05 93.12 124.76 L 94.93 124.11 C 94.67 123.42 94.39 122.74 94.09 122.07 C 97.66 122.31 100.58 123.20 104.00 123.69 C 109.09 125.03 114.78 124.53 119.96 123.83 C 115.95 123.67 111.96 123.74 107.96 123.31 C 101.04 121.90 93.47 119.70 87.74 115.27 C 83.84 112.03 80.92 107.18 80.50 102.07 L 79.59 102.36 L 79.79 105.99 C 77.52 104.11 76.39 100.90 76.70 97.99 C 76.76 95.24 78.05 92.97 76.65 90.30 C 75.99 88.40 74.27 87.82 72.88 86.55 C 74.05 86.60 75.23 86.60 76.39 86.54 C 75.86 84.25 72.48 83.27 70.51 82.64 C 67.47 81.72 64.94 82.66 62.01 83.29 C 60.17 83.39 60.03 81.80 59.27 80.55 C 57.37 79.56 55.61 78.17 53.61 77.42 C 55.10 79.67 57.39 81.33 58.89 83.58 C 55.88 83.44 52.99 82.66 49.99 82.42 C 52.19 84.45 56.11 85.04 58.10 87.92 C 60.64 91.29 61.31 96.49 62.32 100.49 C 62.72 103.19 63.70 105.64 63.76 108.40 C 62.45 106.77 62.85 104.86 61.98 103.08 C 60.36 98.49 59.87 93.91 57.50 89.51 C 56.09 86.83 52.33 85.65 49.85 84.08 C 48.72 83.16 46.72 83.28 47.17 81.43 C 49.90 81.24 52.43 81.32 55.12 81.80 C 53.93 79.25 50.60 77.01 50.24 74.22 Z" />
  <path
     id="path5269"
     fill="#091453"
     d="M 65.00 84.10 C 69.46 82.25 71.11 85.30 72.14 88.90 C 69.99 88.41 68.16 87.46 65.88 87.49 L 64.63 84.84 C 65.86 85.29 67.09 85.74 68.32 86.18 C 67.70 84.98 66.00 85.05 65.00 84.10 Z" />
  <path
     id="path5271"
     fill="#5a2d09"
     d="M 65.56 89.48 C 64.83 89.67 61.51 89.14 62.84 87.88 C 64.17 86.86 65.83 87.83 65.56 89.48 Z" />
  <path
     id="path5273"
     fill="#091453"
     d="M 68.84 96.55 C 70.23 96.81 71.88 99.87 70.10 100.53 C 68.97 99.92 68.01 97.62 68.84 96.55 Z" />
  <path
     id="path5275"
     fill="#ffffff"
     d="M 83.77 101.53 C 85.18 102.11 86.03 102.41 87.60 102.20 C 88.09 104.83 89.64 106.54 90.88 108.76 C 87.63 107.84 85.09 104.49 83.77 101.53 Z" />
  <path
     id="path5277"
     fill="#091453"
     d="M 66.23 102.30 C 68.16 101.44 69.16 104.59 69.01 105.97 C 66.64 106.08 66.64 104.09 66.23 102.30 Z" />
  <path
     id="path5279"
     fill="#5a2d09"
     d="M 71.38 102.39 C 73.00 102.14 74.47 104.36 74.65 105.79 C 72.81 106.59 71.35 103.97 71.38 102.39 Z" />
  <path
     id="path5281"
     fill="#ffffff"
     d="M 108.34 106.45 C 110.91 108.91 114.47 110.43 117.86 111.39 L 117.86 112.50 C 114.98 112.66 112.20 112.68 109.32 112.27 C 110.48 113.52 111.77 114.59 112.86 115.89 C 109.27 116.13 106.44 114.69 103.31 113.22 C 104.80 115.19 106.43 116.94 107.34 119.28 C 101.37 118.87 94.40 116.50 90.17 112.13 C 93.27 113.64 97.42 116.20 100.90 115.69 C 99.85 113.14 98.12 111.18 96.51 109.01 C 100.05 110.14 104.96 112.13 108.55 110.51 C 109.49 109.62 108.38 107.59 108.34 106.45 Z" />
  <path
     id="path5283"
     fill="#5a2d09"
     d="M 75.93 107.48 C 77.09 108.76 79.57 110.69 78.69 112.62 C 77.01 112.95 73.47 108.29 75.93 107.48 Z" />
  <path
     id="path5285"
     fill="#5a2d09"
     d="M 65.72 109.54 C 66.92 109.64 67.45 112.62 67.69 113.69 C 66.61 113.89 65.96 113.49 65.73 112.48 C 65.52 111.82 63.86 108.99 65.72 109.54 Z" />
  <path
     id="path5287"
     fill="#091453"
     d="M 69.99 108.47 C 71.33 110.02 72.73 111.43 72.65 113.62 C 70.87 114.34 67.82 109.17 69.99 108.47 Z" />
  <path
     id="path5289"
     fill="#5a2d09"
     d="M 81.00 113.52 C 82.15 115.12 84.39 116.52 83.77 118.75 C 81.77 118.74 81.32 117.08 80.16 115.77 C 79.25 114.93 79.53 114.18 81.00 113.52 Z" />
  <path
     id="path5291"
     fill="#ffffff"
     d="M 125.47 114.24 C 126.95 115.34 129.80 115.77 129.96 117.85 C 126.74 118.76 122.88 119.17 119.71 117.93 C 119.63 117.74 119.62 117.59 119.67 117.47 C 121.16 117.43 122.60 117.48 124.09 117.20 C 125.14 116.77 125.09 115.21 125.47 114.24 Z" />
  <path
     id="path5293"
     fill="#5a2d09"
     d="M 74.30 115.62 C 75.86 116.91 77.95 118.50 77.75 120.76 C 75.51 121.54 72.80 117.73 72.67 115.84 C 73.03 115.46 73.57 115.39 74.30 115.62 Z" />
  <path
     id="path5295"
     fill="#5a2d09"
     d="M 68.16 116.43 C 69.98 116.99 71.47 119.92 71.73 121.73 L 70.37 121.64 C 69.51 120.30 67.21 118.05 68.16 116.43 Z" />
  <path
     id="path5297"
     fill="#5a2d09"
     d="M 88.18 119.64 C 89.76 121.23 91.95 121.86 91.61 124.53 C 88.97 124.80 86.16 121.84 85.23 119.55 C 86.18 119.41 87.16 119.44 88.18 119.64 Z" />
  <path
     id="path5299"
     fill="#5a2d09"
     d="M 84.56 127.61 C 81.76 127.02 79.83 125.11 78.29 122.82 C 80.51 120.82 85.34 125.22 84.56 127.61 Z" />
  <path
     id="path5301"
     fill="#5a2d09"
     d="M 72.43 123.36 C 73.46 123.70 74.39 124.17 75.23 124.77 C 76.57 126.05 77.69 126.70 77.69 128.74 C 76.00 128.47 75.01 127.32 73.83 126.20 C 73.08 125.49 72.61 124.55 72.43 123.36 Z" />
  <path
     id="path5303"
     fill="#5a2d09"
     d="M 92.91 131.19 C 90.64 132.01 87.48 129.75 86.13 127.96 C 87.60 125.79 93.41 128.52 92.91 131.19 Z" />
  <path
     id="path5305"
     fill="#5a2d09"
     d="M 82.08 129.74 C 83.59 131.17 85.93 131.10 85.52 133.67 C 83.35 132.80 81.23 132.27 79.51 130.59 C 78.56 128.37 80.94 129.82 82.08 129.74 Z" />
  <path
     id="path5307"
     fill="#5a2d09"
     d="M 103.03 128.64 C 104.76 128.57 109.40 128.82 108.49 131.47 C 105.97 131.09 103.12 132.23 103.03 128.64 Z" />
  <path
     id="path5309"
     fill="#5a2d09"
     d="M 97.94 130.33 C 99.15 130.58 100.36 130.68 101.57 130.63 L 101.65 133.41 L 98.79 133.30 C 97.03 131.68 95.22 133.59 95.40 130.47 C 96.25 130.34 97.10 130.29 97.94 130.33 Z" />
  <path
     id="path5311"
     fill="#5a2d09"
     d="M 88.43 132.60 C 90.83 132.68 93.87 132.82 94.91 135.44 C 92.68 135.48 90.51 135.32 88.36 134.71 C 88.27 133.98 88.30 133.28 88.43 132.60 Z" />
  <path
     id="path5313"
     fill="#028b4c"
     d="M 77.10 134.38 C 79.35 134.80 82.47 137.09 84.41 138.59 C 88.05 141.69 88.54 145.61 90.36 149.71 C 88.33 149.01 87.45 147.29 85.16 147.46 C 83.03 147.88 81.72 149.18 80.48 150.87 C 75.80 150.47 70.63 150.24 66.02 151.19 C 70.72 151.60 75.46 151.68 80.17 151.98 C 80.60 155.06 81.88 156.82 84.87 157.84 C 83.77 160.56 84.65 161.61 86.05 163.80 C 83.34 167.54 79.51 168.33 75.43 169.91 C 76.79 166.91 75.63 164.93 75.68 161.95 C 76.31 160.84 77.17 159.91 77.87 158.85 C 74.70 161.24 69.50 162.17 66.13 160.22 C 66.74 159.11 67.44 158.07 68.22 157.09 C 68.95 156.12 70.42 156.75 70.86 155.78 C 66.92 155.52 62.01 154.44 59.64 150.94 C 61.83 147.57 68.42 147.20 72.05 147.36 C 71.25 146.48 70.03 146.81 69.33 145.77 C 68.63 144.49 67.97 143.32 67.97 141.81 C 72.80 141.59 75.49 142.26 79.02 145.52 C 76.51 141.77 76.82 138.69 77.10 134.38 Z" />
  <path
     id="path5315"
     fill="#028b4c"
     d="M 121.05 135.16 C 122.42 139.76 122.37 143.36 119.17 147.13 C 120.47 146.47 121.55 145.51 122.80 144.78 C 125.68 143.66 128.52 143.87 131.54 143.96 C 131.23 145.39 130.66 146.68 129.72 147.81 C 129.08 149.22 127.33 147.92 127.14 149.29 C 131.35 149.38 136.59 150.02 139.76 153.11 C 140.04 154.36 137.72 155.24 136.84 155.88 C 133.72 157.35 130.49 157.68 127.09 157.86 C 130.37 158.70 130.43 159.29 132.12 162.18 L 131.42 163.14 C 126.85 163.52 123.67 163.29 119.88 160.55 C 120.71 162.23 122.13 163.25 122.53 165.17 C 123.01 167.33 122.97 169.61 123.29 171.81 C 120.76 170.67 117.95 169.90 115.60 168.41 C 114.36 166.36 113.23 164.69 111.59 162.93 C 114.85 162.09 117.38 160.16 120.38 158.77 C 118.76 157.03 115.19 155.75 113.49 153.69 C 120.01 153.51 126.54 153.39 133.06 153.46 C 125.92 151.97 118.18 151.94 110.92 152.57 C 109.52 152.28 108.12 152.01 106.71 151.74 C 107.66 148.10 110.04 142.74 113.35 140.32 C 115.73 138.18 118.82 137.54 121.05 135.16 Z" />
  <path
     id="path5317"
     fill="#091453"
     d="M 89.78 136.71 C 92.66 137.79 97.96 137.60 100.37 138.95 C 97.03 141.60 95.00 145.31 91.99 148.23 L 90.99 148.13 C 89.41 144.37 89.71 140.69 89.78 136.71 Z" />
  <path
     id="path5319"
     fill="#091453"
     d="M 102.02 145.55 C 101.35 147.64 100.63 150.89 99.02 152.35 C 98.32 151.65 97.79 150.78 97.44 149.73 C 98.88 148.29 100.32 146.68 102.02 145.55 Z" />
  <path
     id="path5321"
     fill="#5a2d09"
     d="M 86.05 148.69 C 87.35 148.65 88.34 150.15 89.29 150.89 C 90.84 150.44 92.04 147.98 94.04 148.71 C 96.40 149.14 98.69 152.60 96.81 154.76 C 95.65 156.79 94.29 156.73 92.18 156.70 C 93.55 158.57 94.21 160.57 92.47 162.51 C 91.08 164.29 87.94 164.29 86.55 162.52 C 85.00 160.74 85.23 158.83 86.78 157.22 L 87.37 159.79 C 88.31 158.79 89.29 158.00 89.35 156.51 C 87.49 157.19 85.86 156.40 83.94 156.42 C 81.93 155.09 81.19 153.39 81.67 150.99 C 82.99 149.78 84.01 148.13 86.05 148.69 Z" />
  <path
     id="path5323"
     fill="#ffffff"
     d="M 85.07 149.73 C 85.58 150.50 83.99 152.66 83.07 152.37 C 81.85 151.92 84.28 148.99 85.07 149.73 Z" />
  <path
     id="path5325"
     fill="#ffffff"
     d="M 91.24 150.73 L 92.12 149.78 L 92.80 150.30 C 92.31 152.19 91.70 152.75 90.97 151.98 L 91.24 150.73 Z" />
  <path
     id="path5327"
     fill="#028b4c"
     d="M 117.73 158.94 C 113.96 160.48 111.23 162.65 106.87 161.57 C 108.52 162.91 110.53 163.29 111.88 165.12 C 113.02 166.69 114.27 168.45 114.82 170.31 C 111.60 170.83 110.38 171.05 107.84 168.94 C 109.77 171.91 112.53 178.14 109.90 181.18 C 105.45 179.99 102.45 176.75 100.30 172.84 C 100.40 173.90 100.49 174.97 100.55 176.05 C 99.78 177.30 98.95 178.56 97.97 179.67 C 95.37 176.31 93.81 173.06 94.61 168.68 C 92.68 172.71 89.49 174.43 85.86 176.68 C 85.90 172.34 84.85 168.58 86.80 164.42 C 88.91 164.86 91.00 165.48 92.70 163.74 C 94.99 161.84 94.72 160.16 94.21 157.45 C 95.54 158.20 95.89 160.19 96.66 161.45 C 99.53 166.56 102.89 171.57 106.95 175.81 C 103.26 169.58 98.90 163.97 96.12 157.17 C 97.27 156.11 97.95 154.97 98.70 153.63 C 105.72 151.69 112.97 153.54 117.73 158.94 Z" />
</svg>
